<svg width="14" height="14" viewBox="0 0 14 14" fill="none" xmlns="http://www.w3.org/2000/svg">
<path d="M8.36413 0.494704L5.59879 0.488037H5.59746C2.68146 0.488037 0.397461 2.7727 0.397461 5.68937C0.397461 8.42137 2.52146 10.4934 5.37413 10.6027V13.1547C5.37413 13.2267 5.40346 13.3454 5.45413 13.4234C5.54879 13.5734 5.71013 13.6547 5.87546 13.6547C5.96746 13.6547 6.06013 13.6294 6.14346 13.576C6.31946 13.464 10.4588 10.816 11.5355 9.90537C12.8035 8.83204 13.5621 7.2587 13.5641 5.69737V5.68604C13.5601 2.7747 11.2775 0.494704 8.36413 0.494037V0.494704ZM10.8888 9.1427C10.1328 9.7827 7.64746 11.4127 6.37413 12.238V10.1134C6.37413 9.83737 6.15079 9.61337 5.87413 9.61337H5.61013C3.17013 9.61337 1.39813 7.9627 1.39813 5.68937C1.39813 3.33337 3.24346 1.48804 5.59813 1.48804L8.36279 1.4947H8.36413C10.7188 1.4947 12.5641 3.3387 12.5655 5.69204C12.5635 6.96537 11.9375 8.2547 10.8895 9.1427H10.8888Z" fill="#6C757D"/>
</svg>
